<svg id="Layer_1" data-name="Layer 1" xmlns="http://www.w3.org/2000/svg" viewBox="0 0 14 14"><path d="M14,5.542l0-.019V3.314a1.058,1.058,0,0,0-1.057-1.057L7.189,2.24,5.66.71A1.049,1.049,0,0,0,4.913.4H1.057A1.058,1.058,0,0,0,0,1.457V12.542A1.059,1.059,0,0,0,1.057,13.6H12.941A1.059,1.059,0,0,0,14,12.542v-.361l0-.01ZM1.059,1.4l3.894.017,1.529,1.53a1.054,1.054,0,0,0,.747.31L13,3.314l0,.87a1.4,1.4,0,0,0-.422-.071H1.43A1.4,1.4,0,0,0,1,4.187V1.457A.057.057,0,0,1,1.059,1.4ZM1,12.542v-.361l0-.01V5.542a.429.429,0,0,1,.428-.429H12.571a.425.425,0,0,1,.414.354L12.941,12.6Z" fill="#50D291"/></svg>
