<svg id="Layer_1" data-name="Layer 1" xmlns="http://www.w3.org/2000/svg" viewBox="0 0 16 16"><rect width="16" height="16" rx="2" fill="#3ce17d"/><path d="M8.019,2.523a5.5,5.5,0,1,0,5.5,5.5,5.5,5.5,0,0,0-5.5-5.5h0m0,9.99a4.491,4.491,0,1,1,4.462-5h-1.2l-.9-1.724a.5.5,0,0,0-.447-.271H5.819a.5.5,0,0,0-.507.493.489.489,0,0,0,.06.245l.657,1.258h-.72a.5.5,0,0,0,0,1.008h.725L5.377,9.781a.5.5,0,0,0,.442.742H9.933a.505.505,0,0,0,.447-.271l.9-1.726h1.2a4.5,4.5,0,0,1-4.462,3.988m.116-4.072-.56,1.073h-.92l.657-1.259a.5.5,0,0,0,0-.467L6.655,6.523h.92l.56,1.071H9.272l-.56-1.071h.92l.6,1.147a.741.741,0,0,1,0,.688l-.6,1.149h-.92l.56-1.073Z" fill="#fff" fill-rule="evenodd"/></svg>